<svg width="24" height="24" viewBox="0 0 24 24" fill="none" xmlns="http://www.w3.org/2000/svg">
<g clip-path="url(#clip0_76_1981)">
<path d="M12.7135 0.753906C12.7135 0.554994 12.7926 0.364228 12.9332 0.223576C13.0739 0.0829239 13.2646 0.00390625 13.4635 0.00390625C16.257 0.00390625 18.9361 1.11361 20.9114 3.0889C22.8867 5.06418 23.9964 7.74324 23.9964 10.5367C23.9964 10.7356 23.9173 10.9264 23.7767 11.067C23.636 11.2077 23.4453 11.2867 23.2464 11.2867C23.0474 11.2867 22.8567 11.2077 22.716 11.067C22.5754 10.9264 22.4964 10.7356 22.4964 10.5367C22.4964 5.55611 18.4444 1.50414 13.4638 1.50414C13.3653 1.50417 13.2677 1.48479 13.1766 1.4471C13.0856 1.4094 13.0029 1.35414 12.9332 1.28447C12.8635 1.2148 12.8083 1.13208 12.7706 1.04104C12.7329 0.950008 12.7135 0.852437 12.7135 0.753906ZM13.4635 5.66172C14.756 5.66318 15.9952 6.17727 16.9091 7.09119C17.823 8.00511 18.3371 9.24424 18.3385 10.5367C18.3385 10.7356 18.4176 10.9264 18.5582 11.067C18.6989 11.2077 18.8896 11.2867 19.0885 11.2867C19.2875 11.2867 19.4782 11.2077 19.6189 11.067C19.7595 10.9264 19.8385 10.7356 19.8385 10.5367C19.8385 7.02152 16.9788 4.16172 13.4635 4.16172C13.2646 4.16172 13.0739 4.24074 12.9332 4.38139C12.7926 4.52204 12.7135 4.71281 12.7135 4.91172C12.7135 5.11063 12.7926 5.3014 12.9332 5.44205C13.0739 5.5827 13.2646 5.66172 13.4635 5.66172ZM11.2464 10.5367C11.2464 10.0982 11.3765 9.66956 11.6201 9.30498C11.8638 8.9404 12.2101 8.65625 12.6152 8.48847C13.0204 8.32069 13.4662 8.27682 13.8962 8.3624C14.3263 8.44797 14.7214 8.65916 15.0314 8.96925C15.3415 9.27934 15.5526 9.6744 15.6381 10.1045C15.7237 10.5346 15.6798 10.9804 15.5119 11.3855C15.3441 11.7906 15.0599 12.1369 14.6953 12.3805C14.3307 12.6241 13.9021 12.7541 13.4635 12.7541C12.8756 12.7535 12.312 12.5196 11.8963 12.1038C11.4805 11.6881 11.2467 11.1244 11.2461 10.5365L11.2464 10.5367ZM12.7464 10.5367C12.7463 10.6786 12.7884 10.8174 12.8672 10.9354C12.946 11.0534 13.058 11.1454 13.1891 11.1997C13.3202 11.254 13.4644 11.2683 13.6036 11.2406C13.7428 11.213 13.8706 11.1447 13.971 11.0443C14.0713 10.944 14.1397 10.8162 14.1674 10.677C14.1951 10.5378 14.1809 10.3936 14.1266 10.2625C14.0723 10.1314 13.9804 10.0193 13.8624 9.94045C13.7444 9.86161 13.6057 9.81953 13.4638 9.81953C13.2736 9.81969 13.0913 9.89526 12.9567 10.0297C12.8222 10.1641 12.7465 10.3463 12.7461 10.5365L12.7464 10.5367ZM0.0098125 6.05627C0.00587698 6.02509 0.00390434 5.9937 0.00390625 5.96228C0.00390625 3.58103 0.887969 1.68081 2.56061 0.4675C2.98834 0.151922 3.51089 -0.0083678 4.042 0.0130938L5.85063 0.0717813C6.11546 0.077937 6.37339 0.157472 6.5957 0.301532C6.81801 0.445592 6.99597 0.648523 7.10978 0.887734L8.78791 4.33239C9.05193 4.86812 9.12425 5.47819 8.99278 6.06079C8.86131 6.64339 8.53402 7.16329 8.06552 7.53372L6.55863 8.73639C8.43831 12.8743 11.1257 15.5614 15.2635 17.4413L16.4662 15.9344C16.8367 15.4659 17.3566 15.1385 17.9393 15.0071C18.5219 14.8756 19.132 14.9479 19.6678 15.212L23.1124 16.8902C23.3516 17.004 23.5546 17.1819 23.6986 17.4042C23.8427 17.6265 23.9222 17.8844 23.9284 18.1493L23.9871 19.958C24.0084 20.489 23.8482 21.0114 23.5328 21.4392C22.3195 23.1118 20.4194 23.9959 18.038 23.9959C18.0067 23.9959 17.9754 23.994 17.9443 23.99C13.2116 23.3927 9.01811 21.3847 5.81673 18.1833C2.61536 14.9819 0.607375 10.7884 0.0098125 6.05627ZM17.6387 16.8703L17.3398 17.2448C18.9731 18.1581 20.6916 18.9098 22.4709 19.4891L22.4299 18.2266L19.0107 16.5607C18.7816 16.445 18.5194 16.4126 18.2691 16.4691C18.0187 16.5256 17.7959 16.6674 17.6387 16.8703ZM5.7737 1.57033L4.49706 1.52889C5.03833 3.23823 5.7955 4.96014 6.75442 6.66128L7.12989 6.36156C7.33274 6.20437 7.47456 5.98148 7.53101 5.73114C7.58746 5.4808 7.55503 5.21861 7.43927 4.98958L5.7737 1.57033ZM1.50405 5.91564C2.65192 14.847 9.15306 21.3481 18.0844 22.496C19.7808 22.4866 21.1042 21.9572 22.0263 20.9216C20.0677 20.2859 18.1792 19.4516 16.3903 18.4318C16.1869 18.6751 15.9094 18.8451 15.6003 18.9157C15.2911 18.9864 14.9673 18.9538 14.6785 18.823C10.2152 16.8039 7.19608 13.7848 5.17689 9.32144C5.04605 9.03249 5.0135 8.70862 5.08421 8.39942C5.15492 8.09021 5.32501 7.81269 5.56844 7.60933C4.50213 5.75045 3.66278 3.86195 3.0677 1.98344C2.03908 2.90509 1.51352 4.22505 1.50405 5.91564Z" fill="black"/>
</g>
<defs>
<clipPath id="clip0_76_1981">
<rect width="24" height="24" fill="white"/>
</clipPath>
</defs>
</svg>
